Der König der Mittelstürmer refers with the name of its hero to the German soccer legend of the twenties: Tull Harder, star of the Hamburger Sport Verein (HSV). But the story itself is completely fictional: The son of a trade company's director falls in love with the daughter of a big American oil magnate. But she supects him to be only interested in her money. So she buys his father's company to take revenge on him. The son's true love is soccer, and from the very first moment soccer fever invades the film. It starts with pictures of a soccer game and even an apple or crumpled up paper must serve as substitute for a ball. Whereas Die elf Teufel promotes soccer as "the sport of the century", König der Mittelstürmer portrays the hero's father as someone who still has to be convinced of its importance. He hates soccer and accuses everybody of being "soccer crazy".


   General
      Complete name : Der Koenig der Mittelstuermer.avi
      Format : AVI
      Format/Info : Audio Video Interleave
      File size : 1.30 GiB
      Duration : 1h 34mn
      Overall bit rate : 1 960 Kbps
      Writing application : FairUse Wizard - http://fairusewizard.com
      Writing library : The best and REALLY easy backup tool
   Video #0
      ID : 0
      Format : MPEG-4 Visual
      Format profile : AdvancedSimple@L5
      Format settings, BVOP : Yes
      Format settings, QPel : No
      Format settings, GMC : No warppoints
      Format settings, Matrix : Default (MPEG)
      Muxing mode : Packed bitstream
      Codec ID : XVID
      Codec ID/Hint : XviD
      Duration : 1h 34mn
      Bit rate : 1 726 Kbps
      Width : 672 pixels
      Height : 496 pixels
      Display aspect ratio : 4:3
      Frame rate : 25.000 fps
      Resolution : 24 bits
      Colorimetry : 4:2:0
      Scan type : Progressive
      Bits/(Pixel*Frame) : 0.207
      Stream size : 1.14 GiB (88%)
      Writing library : XviD 1.2.1 (UTC 2008-12-04)
   Audio #1
      ID : 1
      Format : AC-3
      Format/Info : Audio Coding 3
      Codec ID : 2000
      Duration : 1h 34mn
      Bit rate mode : Constant
      Bit rate : 224 Kbps
      Channel(s) : 2 channels
      Channel positions : L R
      Sampling rate : 48.0 KHz
      Stream size : 152 MiB (11%)
      Alignment : Split accross interleaves
      Interleave, duration : 40 ms (1.00 video frame)
      Interleave, preload duration : 500 ms
 
http://www.imdb.com/title/tt0454860/

Silent with German intertitles; English, French, Spanish and Portuguese subpack (idx/sub)

Fritz Freisler - Der Koenig der Mittelstuermer (1927)
